<svg width="70" height="91" viewBox="0 0 70 91" fill="none" xmlns="http://www.w3.org/2000/svg">
<circle cx="30" cy="30" r="30" fill="#A7BFF0" fill-opacity="0.71"/>
<path d="M38.5 28C21.6463 28 7.98438 41.8787 7.98438 59C7.98438 76.1213 21.6463 90 38.5 90C55.3537 90 69.0156 76.1213 69.0156 59C69.0156 41.8787 55.3537 28 38.5 28ZM48.6255 72.7C48.1456 73.185 47.6424 73.6938 47.2339 74.11C46.866 74.485 46.6063 74.9475 46.4747 75.4487C46.2889 76.1562 46.1388 76.8713 45.8877 77.5575L43.7479 83.4137C42.0548 83.7887 40.3026 84 38.5 84V80.5775C38.7079 79 37.5599 76.045 35.7154 74.1712C34.9772 73.4212 34.5625 72.4037 34.5625 71.3425V67.3413C34.5625 65.8862 33.791 64.5488 32.5371 63.845C30.769 62.8512 28.2539 61.4625 26.5312 60.5812C25.1187 59.8587 23.8119 58.9387 22.6368 57.8625L22.5384 57.7725C21.698 57.0019 20.9519 56.1315 20.3161 55.18C19.162 53.4587 17.2818 50.6275 16.0599 48.7875C18.5787 43.1 23.1179 38.5325 28.7584 36.0513L31.7127 37.5525C33.022 38.2175 34.5625 37.2513 34.5625 35.7638V34.3513C35.5456 34.19 36.546 34.0875 37.5636 34.0487L41.0458 37.5863C41.8149 38.3675 41.8149 39.6337 41.0458 40.415L40.4688 41L39.1964 42.2925C38.8125 42.6825 38.8125 43.3162 39.1964 43.7062L39.7735 44.2925C40.1574 44.6825 40.1574 45.3162 39.7735 45.7062L38.7892 46.7062C38.6043 46.8936 38.3538 46.9988 38.0927 46.9988H36.9865C36.7306 46.9988 36.4845 47.1 36.2999 47.2825L35.0793 48.4888C34.9297 48.6368 34.8302 48.8292 34.7953 49.0384C34.7603 49.2476 34.7917 49.4626 34.8849 49.6525L36.8032 53.5513C37.1305 54.2163 36.6543 54.9988 35.9234 54.9988H35.2294C34.9919 54.9988 34.7631 54.9112 34.5846 54.7537L33.4428 53.7463C33.1844 53.5185 32.8721 53.363 32.5366 53.2951C32.2011 53.2272 31.854 53.2491 31.5294 53.3587L27.694 54.6575C27.4012 54.7567 27.1465 54.947 26.9661 55.2014C26.7857 55.4558 26.6886 55.7614 26.6887 56.075C26.6887 56.6413 27.0037 57.1575 27.5021 57.4112L28.8654 58.1038C30.0233 58.6925 31.3005 58.9988 32.595 58.9988C33.8894 58.9988 35.3746 62.41 36.5325 62.9987H44.7459C45.7905 62.9987 46.7909 63.42 47.5304 64.17L49.2149 65.8812C49.9186 66.5964 50.3139 67.5663 50.3137 68.5775C50.3135 69.3437 50.1642 70.1024 49.8745 70.8099C49.5848 71.5173 49.1603 72.1597 48.6255 72.7ZM59.2949 61.2812C58.5825 61.1 57.9611 60.6562 57.5538 60.035L55.3414 56.6637C55.0177 56.1712 54.8449 55.5922 54.8449 55C54.8449 54.4078 55.0177 53.8288 55.3414 53.3363L57.7519 49.6637C58.0374 49.23 58.4287 48.8775 58.8889 48.645L60.486 47.8337C62.1496 51.1987 63.1094 54.9837 63.1094 59C63.1094 60.0838 63.0183 61.145 62.8854 62.1925L59.2949 61.2812Z" fill="#0055FF"/>
</svg>
