<svg width="62" height="85" viewBox="0 0 62 85" fill="none" xmlns="http://www.w3.org/2000/svg">
<circle cx="30" cy="30" r="30" fill="#A7BFF0" fill-opacity="0.71"/>
<path d="M55.6838 68.5968L31.8889 80.4422C31.6082 80.5626 31.3061 80.6247 31.0007 80.6247C30.6953 80.6247 30.3931 80.5626 30.1124 80.4422L6.31631 68.5968C5.83193 68.3546 5.83193 67.9574 6.31631 67.714L12.015 64.8828C12.296 64.7624 12.5986 64.7003 12.9044 64.7003C13.2102 64.7003 13.5128 64.7624 13.7938 64.8828L30.1124 72.9961C30.3929 73.1172 30.6952 73.1796 31.0007 73.1796C31.3062 73.1796 31.6084 73.1172 31.8889 72.9961L48.2075 64.8828C48.4883 64.7624 48.7907 64.7002 49.0963 64.7002C49.4019 64.7002 49.7043 64.7624 49.9851 64.8828L55.6838 67.7201C56.1742 67.9574 56.1742 68.3546 55.6838 68.5968ZM55.6838 52.0638L49.9851 49.2266C49.7043 49.1062 49.4019 49.044 49.0963 49.044C48.7907 49.044 48.4883 49.1062 48.2075 49.2266L31.8889 57.3496C31.6081 57.4695 31.306 57.5313 31.0007 57.5313C30.6954 57.5313 30.3932 57.4695 30.1124 57.3496L13.7938 49.2266C13.5128 49.1062 13.2102 49.0441 12.9044 49.0441C12.5986 49.0441 12.296 49.1062 12.015 49.2266L6.31631 52.0638C5.83193 52.306 5.83193 52.7044 6.31631 52.949L30.1124 64.792C30.3931 64.9124 30.6953 64.9745 31.0007 64.9745C31.3061 64.9745 31.6082 64.9124 31.8889 64.792L55.6838 52.949C56.1742 52.7044 56.1742 52.3072 55.6838 52.0638ZM6.31631 38.2931L30.1112 49.2266C30.6822 49.4507 31.3167 49.4507 31.8877 49.2266L55.6838 38.2931C56.1682 38.0678 56.1682 37.7009 55.6838 37.4769L31.8877 26.5445C31.3172 26.3181 30.6817 26.3181 30.1112 26.5445L6.31631 37.4769C5.82588 37.7009 5.82588 38.0678 6.31631 38.2931Z" fill="#0055FF"/>
</svg>
